<?xml version="1.0" encoding="utf-8"?>
<!-- Generator: Adobe Illustrator 25.0.0, SVG Export Plug-In . SVG Version: 6.00 Build 0)  -->
<svg version="1.1"
	 id="svg2" xmlns:cc="http://creativecommons.org/ns#" xmlns:dc="http://purl.org/dc/elements/1.1/" xmlns:inkscape="http://www.inkscape.org/namespaces/inkscape" xmlns:rdf="http://www.w3.org/1999/02/22-rdf-syntax-ns#" xmlns:sodipodi="http://sodipodi.sourceforge.net/DTD/sodipodi-0.dtd" xmlns:svg="http://www.w3.org/2000/svg"
	 xmlns="http://www.w3.org/2000/svg" xmlns:xlink="http://www.w3.org/1999/xlink" x="0px" y="0px" viewBox="0 0 498 566.7"
	 style="enable-background:new 0 0 498 566.7;" xml:space="preserve">
<style type="text/css">
	.st0{fill:#FFFFFF;}
	.st1{fill:#E32721;}
</style>
<g>
	<g>
		<path class="st0" d="M309.2,78.1c-34.4,0.1-57.9,28.3-58,57.5c-0.1,30.8,24,58,57.4,58.4c32.4,0.4,58.3-25.6,58.4-57.9
			C367.1,104,341.3,78.1,309.2,78.1z M310.4,177.6c-23.8,0.7-42.7-18-42.8-41.9c-0.1-22,17.9-41.1,40.8-41.4
			c23.5-0.3,42,18.3,42.5,40.6C351.2,157.9,333.5,177,310.4,177.6z"/>
		<g>
			<path class="st0" d="M332.8,158c-0.2,0.7-0.8,1.3-1.3,1.8c-2.2,2.5-4.9,4.3-7.9,5.8c-5.3,2.6-10.9,3.9-16.7,3.7
				c-8.3-0.3-15.6-3.3-21.7-9c-5.1-4.7-8.5-10.4-10.1-17.2c-1.9-7.8-1-15.4,2.5-22.6c5-10.2,13.2-16.6,24.4-18.8
				c7.2-1.4,14.2-0.3,20.9,2.8c3.4,1.6,6.4,3.6,9,6.3c0.8,0.8,1.5,1.7,2.2,2.7c-0.4,0.3-0.7,0-1-0.2c-3.5-1.7-7.2-3.2-11-4
				c-4.3-0.9-8.6-1.1-12.8,0.2c-2.2,0.6-4.2,1.5-6.1,2.8c-6.7,4.4-11,10.6-12.4,18.6c-1.2,6.8,0.1,13.1,3.8,18.9
				c4.7,7.3,11.4,11.4,20,12.5c5.8,0.8,11.2-0.7,16.3-3.3c0.5-0.2,0.9-0.5,1.4-0.7C332.3,158,332.5,158,332.8,158L332.8,158z"/>
			<path class="st0" d="M331.7,146.6c-0.5,0.2-0.9,0-1.3-0.1c-2.9-0.8-5.8-1.7-8.6-2.5c-0.3-0.1-0.7-0.2-1-0.3c-1-0.3-1.8,0-2.4,0.8
				c-0.2,0.3-0.4,0.6-0.6,0.9c-1.8,2.5-3.7,5-5.5,7.5c-0.2,0.3-0.3,0.6-0.7,0.7c-0.3-0.1-0.2-0.4-0.2-0.6c-0.1-3.4-0.3-6.8-0.4-10.2
				c-0.1-1.8-0.4-2.3-2.2-2.8c-3.1-1-6.2-2-9.4-3.1c-0.3-0.1-0.7-0.2-0.9-0.6c0.6-0.3,1.3-0.5,1.9-0.8c2.3-0.9,4.7-1.7,7-2.5
				c0.6-0.2,1.3-0.5,1.9-0.8c0.8-0.4,1.2-1.1,1.3-1.9c0.1-0.7,0.1-1.4,0.1-2.1c0-2.6,0-5.2,0-7.8c0-0.3,0-0.7,0.1-1
				c0-0.2,0.4-0.3,0.6-0.2c0.3,0.3,0.5,0.6,0.8,0.9c1.6,2,3.1,4,4.7,6c0.4,0.5,0.9,1.1,1.4,1.6c0.7,0.7,1.5,1,2.5,0.7
				c1.1-0.3,2.2-0.6,3.3-1c1.9-0.6,3.7-1.2,5.6-1.8c0.4-0.1,0.9-0.2,1.3-0.3c0.2,0,0.5,0.3,0.4,0.4c-0.2,0.3-0.4,0.6-0.6,0.9
				c-1.7,2.5-3.4,5-5.1,7.4c-0.2,0.2-0.3,0.5-0.5,0.7c-0.6,0.9-0.5,1.7,0.1,2.6c0.7,0.9,1.4,1.8,2.1,2.8c1.4,1.9,2.7,3.7,4.1,5.6
				C331.5,145.9,331.9,146.2,331.7,146.6L331.7,146.6z"/>
		</g>
		<path class="st0" d="M332.8,158v-0.1V158L332.8,158z"/>
		<path class="st0" d="M331.7,146.6c0.1-0.1,0.2-0.1,0.2,0.1l-0.1,0.1C331.7,146.8,331.6,146.7,331.7,146.6L331.7,146.6z"/>
	</g>
	<path class="st1" d="M332.7,158v-0.1C332.7,157.9,332.7,158,332.7,158L332.7,158z"/>
	<path class="st1" d="M331.7,146.6c0.1-0.1,0.2-0.1,0.2,0.1l-0.1,0.1C331.6,146.7,331.6,146.7,331.7,146.6
		C331.7,146.5,331.7,146.6,331.7,146.6z"/>
	<path class="st0" d="M149.5,412.5c0-0.4,0-0.7,0.1-1c0.9-5.4,1.7-10.8,2.6-16.2c0.9-5.5,1.7-10.9,2.6-16.4
		c0.9-5.5,1.7-10.9,2.6-16.4c0.9-5.5,1.7-10.9,2.6-16.4c0.3-1.8,0.5-3.5,0.8-5.3c0.1-0.8,0.2-0.8,1-0.8c3.3,0,6.6,0,9.9,0
		c0.8,0,1.1,0.3,1.4,1c1.4,3,2.8,5.9,4.2,8.9c5.7,12,11.4,23.9,17.1,35.9c0.2,0.5,0.4,1.1,0.8,1.5c0.3,0,0.3-0.1,0.3-0.3
		c1.3-8.1,2.6-16.3,3.9-24.4c1.1-7.2,2.3-14.3,3.4-21.5c0-0.2,0.1-0.3,0.1-0.5c0.1-0.3,0.3-0.5,0.6-0.5c0.2,0,0.5,0,0.7,0
		c4,0,8.1,0,12.1,0c0.3,0,0.7-0.1,1.1,0.2c0.1,0.6,0,1.3-0.1,2c-1.4,8.7-2.7,17.3-4.1,26c-1.8,11.2-3.6,22.4-5.4,33.6
		c-0.5,3.2-1,6.4-1.5,9.6c-0.1,0.3-0.1,0.7-0.2,1c-0.1,0.2-0.3,0.4-0.5,0.4c-0.3,0-0.7,0-1,0c-2.9,0-5.8,0-8.6,0
		c-1.7,0-1.4,0.1-2.1-1.3c-2.4-5-4.8-10.1-7.2-15.1c-4.7-9.8-9.3-19.7-14-29.5c-0.2-0.4-0.4-0.8-0.6-1.2c0-0.1-0.2-0.1-0.3-0.1
		l-0.1,0.1c-0.1,0.3-0.2,0.6-0.2,0.8c-1.3,7.8-2.5,15.6-3.7,23.4c-1.1,6.9-2.2,13.8-3.3,20.7c-0.1,0.6-0.2,1.1-0.3,1.7
		c-0.1,0.4-0.3,0.6-0.7,0.6c-0.3,0-0.7,0-1,0c-3.7,0-7.5,0-11.2,0C150.6,412.6,150.1,412.7,149.5,412.5z"/>
	<path class="st0" d="M441.5,387.3c1.1-7,2.2-13.8,3.3-20.5c1.1-6.9,2.2-13.8,3.3-20.7c0.3-1.8,0.5-3.5,0.8-5.3
		c0.1-0.9,0.2-0.9,1.1-0.9c3.7,0,7.5,0,11.2,0c0.7,0,1.4,0,1.9,0c0.5,0.4,0.3,0.7,0.3,1.1c-0.4,2.6-0.8,5.2-1.2,7.9
		c-0.8,4.8-1.5,9.6-2.3,14.3c-0.9,5.4-1.7,10.8-2.6,16.2c-0.9,5.4-1.7,10.8-2.6,16.2c-0.8,5.3-1.7,10.6-2.5,15.9
		c0,0.2-0.1,0.5-0.2,0.7c-0.1,0.3-0.3,0.5-0.6,0.5c-0.4,0-0.8,0-1.2,0c-2.7,0-5.4,0-8.1,0c-2.1,0-1.6,0.2-2.5-1.7
		c-2.7-5.7-5.4-11.3-8.1-17c-4.3-9.1-8.6-18.2-13-27.3c-0.2-0.5-0.4-1-0.8-1.3c-0.2,0.1-0.3,0.3-0.4,0.6c-0.8,5.3-1.7,10.6-2.5,15.9
		c-0.9,5.5-1.7,10.9-2.6,16.4c-0.6,3.9-1.2,7.9-1.9,11.8c-0.1,0.8-0.3,1.7-0.5,2.5c-0.8,0.4-1.7,0.2-2.5,0.2c-3.3,0-6.7,0-10,0
		c-0.4,0-0.8,0-1.2,0c-0.6,0-0.7-0.1-0.6-0.8c0.1-1,0.3-2.1,0.5-3.1c0.9-5.6,1.8-11.3,2.7-16.9c1-6.2,2-12.4,3-18.6
		c0.8-5.4,1.7-10.7,2.5-16.1s1.7-10.7,2.5-16.1c0.1-0.4,0.2-0.8,0.3-1.2c0.4,0,0.7-0.1,1.1-0.1c3.1,0,6.2,0,9.3,0
		c0.8,0,1.3,0.2,1.7,1c1.7,3.6,3.4,7.2,5.1,10.8c5.4,11.3,10.8,22.7,16.2,34C440.7,386.2,440.8,386.8,441.5,387.3z"/>
	<path class="st0" d="M134.4,340c1.7-0.2,13.1-0.2,14.4,0c0.1,0.8-0.2,1.6-0.3,2.4c-1.1,6.9-2.2,13.9-3.3,20.8
		c-0.9,5.5-1.7,10.9-2.6,16.4c-0.7,4.4-1.4,8.9-2.7,13.2c-0.9,2.9-2,5.8-3.5,8.5c-3.3,6-8.4,9.5-15.1,10.8c-4.8,1-9.7,1.2-14.6,1
		c-3.4-0.2-6.6-0.7-9.8-2c-3.3-1.3-6-3.3-7.9-6.4c-1.2-1.9-1.9-3.9-2.4-6.1c-0.8-3.6-0.9-7.2-0.6-10.8c0.4-5,1.3-9.8,2.1-14.7
		c0.7-4.7,1.5-9.3,2.2-14c1-6,1.9-12.1,2.9-18.1c0-0.2,0.1-0.5,0.2-0.7s0.3-0.4,0.5-0.4s0.5,0,0.7,0c4.1,0,8.2,0,12.3,0
		c0.3,0,0.7-0.1,1.1,0.2c-0.4,2.3-0.7,4.6-1.1,6.9c-0.8,4.8-1.5,9.7-2.3,14.5c-0.9,5.5-1.7,10.9-2.6,16.4c-0.5,3.3-1.1,6.6-1.4,9.9
		c-0.2,1.8-0.1,3.6,0.2,5.3c0.6,3.2,2.4,5.3,5.6,6.2c2.8,0.8,5.6,0.8,8.4,0.5c0.5,0,0.9-0.1,1.4-0.2c3.2-0.6,5.7-2.3,7.5-5.1
		c1.3-2.1,2.1-4.3,2.8-6.7c0.8-2.9,1.2-5.9,1.7-8.8c1-6.3,2-12.5,3-18.8c0.9-5.4,1.7-10.8,2.6-16.2
		C133.9,342.7,133.9,341.3,134.4,340z"/>
	<path class="st0" d="M260.3,400.1c2.3,0,6,0,9.6,0c1.8,0,3.6-0.2,5.3-0.7c3-0.7,4.9-2.5,5.6-5.5c0.4-1.7,0.6-3.4,0.8-5.1
		c0-0.3,0-0.7,0-1c-0.2-1.8-1.1-3-2.7-3.6c-1.4-0.5-2.9-0.7-4.4-0.7c-2.1,0-4.2,0-6.2,0c-2.1,0-4.2-0.1-6.2-0.6
		c-1-0.2-1.9-0.5-2.8-0.8c-5.4-2.2-8.4-6.3-8.9-12.1c-0.2-2.1-0.1-4.1,0.3-6.2c0.5-2.7,0.9-5.5,1.4-8.2c0.2-1.3,0.6-2.5,1.1-3.6
		c2.1-5.2,5.8-8.7,11-10.5c2.8-1,5.7-1.5,8.6-1.7c4.5-0.3,9-0.2,13.5,0.2c4.1,0.3,8.2,1,12.3,1.8c0.2,0,0.3,0.1,0.5,0.1
		c0.4,0.1,0.6,0.3,0.5,0.7c-0.1,0.9-0.3,1.7-0.4,2.6c-0.4,2.4-0.8,4.8-1.1,7.2c0,0.2-0.1,0.3-0.1,0.5c-0.1,0.5-0.3,0.7-0.8,0.6
		c-0.7-0.1-1.5-0.2-2.2-0.2c-6.3-0.3-12.7-0.5-19-0.5c-1.6,0-3.1,0.1-4.6,0.4c-3.2,0.7-5.1,2.6-5.8,5.7c-0.4,1.6-0.6,3.3-0.8,4.9
		c-0.1,0.5,0,0.9,0,1.4c0.1,2.3,1.3,3.7,3.6,4.3c1,0.3,2,0.4,3.1,0.4c2.3,0,4.6,0,6.9,0c2.9,0,5.8,0.4,8.5,1.5
		c4.3,1.6,7.2,4.6,8.6,9.1c0.6,1.9,0.7,3.8,0.6,5.8c-0.1,2.8-0.7,5.5-1,8.2c-0.3,1.9-0.6,3.9-1.2,5.7c-1.8,5.7-5.5,9.5-11.2,11.4
		c-0.6,0.2-1.2,0.4-1.8,0.6c-3,0.8-6.1,1.2-9.2,1.3c-8.6,0.3-17-0.3-25.5-2c-0.2,0-0.5-0.1-0.7-0.1c-0.8-0.2-0.9-0.3-0.8-1.2
		c0.4-2.9,0.9-5.7,1.3-8.5c0.3-2.2,0-2,2.3-1.9C251.6,399.6,255.3,399.8,260.3,400.1z"/>
	<path class="st0" d="M47.4,353c-3.4,0-6.7,0-9.9,0c-3.2,0-6.4,0-9.8,0c0.2-1.2,0.3-2.2,0.5-3.2c0.4-2.8,0.9-5.6,1.3-8.4
		c0.1-0.3,0.1-0.7,0.2-1c0.1-0.3,0.3-0.5,0.6-0.5c0.5,0,0.9,0,1.4,0c16.8,0,33.7,0,50.5,0c0.6,0,1.4-0.3,1.8,0.2
		c0.3,0.5-0.1,1.1-0.1,1.7c-0.5,3.2-1,6.5-1.5,9.7c-0.1,0.5-0.2,0.9-0.3,1.3c-0.7,0.2-1.3,0.1-1.9,0.1c-5.5,0-11,0-16.4,0
		c-1.5,0-1.5-0.1-1.7,1.4c-1.3,8.4-2.7,16.9-4,25.3c-1.1,6.9-2.2,13.8-3.2,20.7c-0.6,3.8-1.2,7.5-1.8,11.3c-0.1,0.9-0.2,0.9-1.1,0.9
		c-4.2,0-8.4,0-12.6,0c-0.1,0-0.2,0-0.3,0c-0.6,0-0.7-0.2-0.6-0.8c0.6-3.8,1.2-7.5,1.8-11.3c0.8-4.7,1.5-9.5,2.3-14.2
		c1-6.4,2-12.8,3-19.1c0.7-4.5,1.4-9,2.1-13.5C47.4,353.6,47.4,353.4,47.4,353z"/>
	<path class="st0" d="M314.9,412.5c-1.6,0.2-13,0.2-14.4,0c0.1-0.8,0.2-1.6,0.3-2.3c1.1-6.9,2.2-13.9,3.3-20.8
		c1.1-6.9,2.2-13.9,3.3-20.8c1.1-6.9,2.2-13.9,3.3-20.8c0.4-2.3,0.7-4.7,1.1-7c0.1-0.6,0.2-0.7,0.8-0.7c1,0,2.1,0,3.1,0
		c3.1,0,6.1,0,9.2,0c0.3,0,0.6,0,0.9,0c0.6,0,0.7,0.2,0.6,0.7c-0.2,1.7-0.5,3.4-0.8,5.1c-1.1,7.2-2.3,14.3-3.4,21.5
		c-1.1,6.9-2.2,13.9-3.3,20.8c-1.1,6.9-2.2,13.9-3.3,20.8C315.4,410.1,315.4,411.3,314.9,412.5z"/>
	<path class="st0" d="M217.5,412.4c0.2-1.4,0.4-2.8,0.6-4.2c1.5-9.4,3-18.9,4.5-28.3c1.4-9.1,2.9-18.2,4.3-27.3
		c0.6-3.8,1.2-7.6,1.8-11.4c0-0.2,0.1-0.5,0.1-0.7c0.1-0.3,0.3-0.5,0.6-0.5s0.6,0,0.9,0c3.9,0,7.8,0,11.8,0c0.2,0,0.5,0,0.7,0
		c0.5,0,0.7,0.2,0.6,0.8c0,0.4-0.1,0.8-0.2,1.2c-1.3,8-2.5,15.9-3.8,23.9c-1.3,8.4-2.7,16.7-4,25.1c-1.1,6.8-2.1,13.7-3.2,20.5
		c0,0.2-0.1,0.5-0.1,0.7c-0.1,0.4-0.3,0.6-0.7,0.6c-0.2,0-0.5,0-0.7,0c-4,0-8,0-11.9,0C218.4,412.6,218,412.7,217.5,412.4z"/>
	<path class="st0" d="M361.3,436.8c-0.8,3.8-1.1,7.6-1.6,11.4c-1.2,0.2-2.4,0.1-3.4,0.1c-0.4-0.4-0.2-0.8-0.2-1.1
		c0.4-3.8,0.9-7.7,1.3-11.5c0.2-1.4,0.3-2.9,0.5-4.3c0.1-0.5,0.1-1,0.2-1.5c0.1-0.8,0.2-0.9,1-0.9c0.7,0,1.5,0,2.2,0
		c0.4,0,0.6,0.2,0.8,0.5c0.2,0.7,0.4,1.4,0.7,2.1c1,3.4,2.1,6.8,3.1,10.3c0.1,0.4,0.2,0.9,0.6,1.3c1.4-4.8,2.9-9.5,4.3-14.2
		c1.3-0.2,2.4-0.2,3.5,0c0.5,1,0.4,2.1,0.6,3.2c0.6,4.6,1.1,9.3,1.6,13.9c0.3,2.4,0.5,2.1-1.9,2.1c-0.1,0-0.2,0-0.3,0
		c-1.3,0-1.3,0-1.4-1.3c-0.4-3.2-0.7-6.3-1.1-9.5c0-0.2,0.1-0.5-0.2-0.6c-0.4-0.1-0.4,0.4-0.4,0.6c-0.7,2.6-1.4,5.1-2.1,7.7
		c-0.2,0.8-0.5,1.7-0.7,2.5c-0.1,0.4-0.4,0.6-0.7,0.6c-1,0-2,0.1-2.9-0.1c-0.6-0.8-0.6-1.7-0.9-2.6c-0.7-2.5-1.4-5-2-7.5
		C361.6,437.6,361.4,437.2,361.3,436.8z"/>
	<path class="st0" d="M391,448.1c-0.1,0-0.3,0.1-0.5,0.1c-1,0-2,0.1-2.9-0.1c-0.6-0.8-0.6-1.8-0.9-2.7c-0.7-2.5-1.4-5-2.1-7.5
		c0-0.2-0.1-0.3-0.1-0.5c-0.1-0.2,0-0.5-0.4-0.4c-0.2,0.1-0.2,0.3-0.2,0.4c-0.3,2.4-0.5,4.8-0.8,7.2c-0.1,1-0.2,2.1-0.4,3.1
		c0,0.3-0.2,0.5-0.6,0.5c-0.3,0-0.7,0-1,0c-2.4,0-2.3,0.4-2-2.2c0.4-3.4,0.8-6.8,1.2-10.1c0.2-2.1,0.5-4.1,0.7-6.2
		c0.1-0.8,0.2-0.8,1-0.8c0.6,0,1.3,0,1.9,0c0.9,0,0.9,0,1.2,0.9c1,3.1,1.9,6.3,2.8,9.4c0.4,1.2,0.8,2.5,1.2,3.7
		c0.5-0.2,0.5-0.5,0.6-0.9c1.1-3.8,2.3-7.6,3.4-11.4c0.6-2,0.2-1.8,2.4-1.8c0.1,0,0.2,0,0.3,0c1.5,0,1.5,0,1.6,1.5
		c0.7,5.7,1.3,11.3,2,17c0.1,0.7,0,0.8-0.7,0.8c-0.9,0-1.8,0-2.8,0c-0.5-1.3-0.4-2.7-0.6-3.9c-0.2-1.3-0.3-2.5-0.5-3.8
		s-0.3-2.6-0.5-4.1c-0.4,0.5-0.5,1-0.6,1.4c-0.8,3-1.6,6-2.4,9C391.4,447.3,391.3,447.7,391,448.1z"/>
	<path class="st0" d="M260,436.7c-0.1,1-0.3,1.8-0.4,2.7c-0.3,2.5-0.5,4.9-0.8,7.4c0,0.3-0.1,0.7-0.2,1c-0.1,0.2-0.2,0.4-0.5,0.4
		c-0.9,0-1.8,0-2.8,0c-0.2,0-0.4-0.2-0.4-0.5c0-0.6,0.1-1.3,0.1-1.9c0.6-5,1.2-10.1,1.8-15.1c0.1-0.6,0.2-1.1,0.3-1.7
		c1.1-0.2,2.1-0.1,3.1-0.1c0.3,0,0.5,0.1,0.6,0.5s0.2,0.8,0.4,1.2c1.1,3.8,2.3,7.5,3.4,11.3c0.1,0.4,0.3,0.9,0.5,1.5
		c0.2-0.7,0.4-1.1,0.6-1.5c1.1-3.7,2.2-7.4,3.3-11.1c0.1-0.4,0.2-0.8,0.4-1.2c0.1-0.5,0.4-0.7,0.9-0.6c0.8,0,1.6,0,2.4,0
		c0.4,0,0.6,0.2,0.7,0.6c0.2,1.7,0.4,3.4,0.6,5.2c0.4,3.8,0.9,7.6,1.3,11.3c0,0.3,0.1,0.7,0.1,1c0.1,1.2,0.1,1.2-1.1,1.2
		c-0.1,0-0.1,0-0.2,0c-0.7,0-1.6,0.3-2.2-0.2s-0.3-1.4-0.4-2.1c-0.4-2.9-0.7-5.8-1-8.8c0-0.2-0.1-0.3-0.1-0.4
		c-0.4,0-0.4,0.2-0.5,0.4c-0.8,3.1-1.6,6.1-2.4,9.2c-0.1,0.4-0.3,0.9-0.4,1.3c-0.1,0.3-0.3,0.5-0.6,0.5c-0.1,0-0.2,0-0.3,0
		c-0.9-0.1-1.8,0.1-2.7-0.1c-0.5-0.7-0.6-1.6-0.8-2.4c-0.7-2.6-1.4-5.1-2.1-7.7C260.5,437.6,260.5,437.1,260,436.7z"/>
	<path class="st0" d="M114.8,440.9c0-0.4,0-0.9,0-1.3c0-2.9,0-5.9,0-8.8c0-0.4,0-0.8,0-1.2c0-0.4,0.2-0.7,0.6-0.7c0.5,0,0.9,0,1.4,0
		c2,0,1.9-0.2,1.9,1.9c0,5.2,0,10.5,0,15.7c0,0.5,0,0.9,0,1.4c0,0.1-0.1,0.3-0.3,0.3c-0.8,0-1.6,0-2.4,0c-0.4,0-0.6-0.3-0.8-0.6
		c-0.8-1.3-1.6-2.5-2.4-3.8c-1.4-2.2-2.8-4.5-4.3-6.7c-0.2-0.3-0.4-0.6-0.6-0.8c-0.5,0.2-0.3,0.6-0.3,0.9c0,3.1,0,6.1,0,9.2
		c0,0.5,0,0.9,0,1.4c0,0.3-0.2,0.5-0.5,0.5c-0.5,0-0.9,0-1.4,0c-2.3,0-2,0.2-2-2c0-5.1,0-10.3,0-15.4c0-0.5,0-0.9,0-1.4
		c0-0.3,0.2-0.5,0.5-0.5c0.2,0,0.3,0,0.5,0c2.5,0,1.9-0.3,3.1,1.7c2,3.1,4,6.2,5.9,9.3c0.2,0.4,0.5,0.8,0.7,1.1
		C114.6,441,114.7,441,114.8,440.9z"/>
	<path class="st0" d="M39.2,440.9c0-2.8,0-5.6,0-8.5c0-0.9,0-1.8,0-2.8c0-0.6,0.2-0.7,0.7-0.7c3.7,0.1,3.1-0.7,3.2,3
		c0,4.7,0,9.5,0,14.2c0,0.7,0.1,1.4-0.2,2.1c-0.2,0-0.3,0.1-0.5,0.1c-0.8,0-1.7,0.1-2.4-0.1c-0.7-0.3-0.9-1.2-1.3-1.8
		c-2-3.2-4-6.3-6-9.5c-0.2-0.3-0.3-0.6-0.7-0.7c-0.3,0.4-0.1,0.8-0.1,1.2c0,3.1,0,6.2,0,9.3c0,0.4,0,0.8-0.1,1.2
		c0,0.1-0.2,0.3-0.3,0.3c-1,0-2.1,0-3.1,0c-0.1,0-0.3-0.2-0.3-0.3c-0.1-0.4,0-0.8-0.1-1.2c0-5.4,0-10.7,0-16.1c0-0.2,0-0.5,0-0.7
		c0-0.9,0.1-1,1-1c2.4,0,1.8-0.4,3.1,1.6c2.1,3.2,4.1,6.4,6.1,9.6c0.2,0.3,0.4,0.5,0.5,0.8C39,441,39.1,440.9,39.2,440.9z"/>
	<path class="st0" d="M256.7,480.7c-3.2,0-6.5,0-9.7,0c-0.5,0-0.9,0-1.4,0c-0.4,0-0.6-0.3-0.6-0.7c0-0.3,0-0.6,0-0.9
		c0-6.6,0-13.2,0-19.7c0-1.6,0-1.6,1.7-1.5c0.6,0,0.7,0.2,0.7,0.7s0,0.9,0,1.4c0,5.6,0,11.2,0,16.8c0,1.6,0,1.6,1.6,1.6
		c1.7,0,3.3,0,5,0c0.9,0,1-0.1,1-1c0-3.1,0-6.2,0-9.3c0-0.8,0-1.5,0-2.2c0-0.9,0.1-0.9,1-1c0.3,0,0.6,0,0.9,0s0.5,0.2,0.5,0.5
		c0,0.5,0,0.9,0,1.4c0,3.2,0,6.5,0,9.7c0,0.5,0,0.9,0,1.4c0,0.3,0.2,0.5,0.6,0.5c0.1,0,0.2,0,0.3,0c2.2,0,4.5,0,6.7,0
		c0.8,0,0.9-0.2,0.9-0.9c0-0.5,0-0.9,0-1.4c0-5.5,0-11.1,0-16.6c0-1.7,0-1.6,1.6-1.6c0.7,0,0.8,0.2,0.8,0.8c0,0.3,0,0.7,0,1
		c0,6.3,0,12.7,0,19c0,2,0.1,1.9-1.9,1.9C263.4,480.7,260.1,480.7,256.7,480.7z"/>
	<path class="st0" d="M440.2,438.7c0-1.6,0-3.2,0-4.8c0-0.5,0-1,0.1-1.6c0.3-1.6,1.2-2.7,2.8-3.2c0.5-0.1,1-0.2,1.5-0.2
		c2.5-0.1,5.1,0.2,7.6,0.3c0.6,0,0.8,0.2,0.8,0.7c0,3.1,0.5,2.6-2.4,2.7c-1.6,0-3.1,0-4.7,0c-1.3,0-1.8,0.4-1.8,1.8
		c0,2.9-0.5,2.4,2.4,2.6c1.5,0.1,3,0.1,4.5,0.2c0.6,0,0.7,0.1,0.7,0.7s0,1.3,0,1.9c0,0.3-0.2,0.4-0.4,0.4c-0.4,0-0.8,0-1.2,0.1
		c-1.7,0-3.3,0.1-5,0.1c-0.8,0-0.9,0.1-0.9,0.9c0,0.7,0,1.4,0,2.1c0.1,0.8,0.6,1.2,1.3,1.4c0.4,0.1,0.8,0,1.2,0c1.8,0,3.7,0,5.5,0
		c0.7,0,0.8,0.1,0.8,0.8c0,2.6,0.5,2.5-2.4,2.6c-1.7,0.1-3.3,0.1-5,0.2c-0.7,0-1.4,0-2.1-0.1c-1.9-0.3-3.1-1.5-3.2-3.5
		c-0.1-1.7,0-3.5-0.1-5.2C440.2,439.3,440.2,439,440.2,438.7L440.2,438.7z"/>
	<path class="st0" d="M463.5,429c1.3,0.1,2.5,0.1,3.8,0.2c0.8,0.1,0.9,0.1,0.9,0.9c0,2.9,0.4,2.5-2.4,2.5c-1.6,0-3.1,0-4.7,0
		c-1.3,0-1.7,0.5-1.8,1.8c0,0.6,0,1.2,0,1.7c0,0.6,0.1,0.7,0.9,0.8c2,0.1,3.9,0.1,5.9,0.2c0.8,0,0.8,0.1,0.9,0.9c0,0.2,0,0.5,0,0.7
		c0,1.5,0,1.5-1.5,1.5c-1.7,0-3.5,0.1-5.2,0.1c-0.8,0-0.9,0.2-0.9,0.9c0,0.5,0,1,0,1.6c0.1,1.4,0.5,1.9,1.9,1.9c1.7,0,3.3,0,5,0
		c0.5,0,0.9,0,1.4,0c0.4,0,0.6,0.3,0.6,0.7c-0.1,2.8,0.5,2.6-2.5,2.8c-1.7,0.1-3.3,0.1-5,0.2c-0.7,0-1.4,0-2.1-0.1
		c-1.8-0.3-3-1.5-3.2-3.3c0-0.2,0-0.5,0-0.7c0-3.7,0-7.4,0-11.1c0-0.5,0.1-0.9,0.2-1.4c0.3-1.4,1.2-2.2,2.5-2.6
		c0.6-0.2,1.2-0.3,1.9-0.3C461.2,428.9,462.4,428.9,463.5,429C463.6,428.9,463.6,429,463.5,429z"/>
	<path class="st0" d="M336.3,432.5c-0.5,0.2-0.9,0.1-1.2,0c-1.5-0.2-3-0.3-4.5-0.2c-1.8,0.1-2.7,0.8-3.1,2.7c-0.5,2.4-0.5,4.8,0,7.2
		c0.3,1.8,1.2,2.6,3.1,2.7c1.7,0,3.3-0.1,5-0.1c0.7,0,0.8,0.1,0.8,0.7c0,2.6,0.4,2.2-2.2,2.7c-1.8,0.3-3.7,0.3-5.5,0.1
		c-2.4-0.3-3.9-1.5-4.6-3.8c-0.3-1-0.5-2-0.6-3.1c-0.2-2.4-0.2-4.7,0.2-7.1c0.1-0.6,0.3-1.2,0.5-1.8c0.7-2.1,2.2-3.4,4.4-3.6
		c2.4-0.3,4.8-0.1,7.2,0.6c0.4,0.1,0.7,0.3,0.7,0.8C336.4,431,336.5,431.8,336.3,432.5z"/>
	<path class="st0" d="M301.3,438.7c0.1-1.8,0.1-3.5,0.5-5.1c0.2-0.6,0.3-1.1,0.6-1.6c0.8-1.7,2.1-2.8,3.9-3c2.5-0.4,5.1-0.2,7.5,0.5
		c0.4,0.1,0.5,0.4,0.6,0.8c0,0.2,0,0.5,0,0.7c0,1.8,0.1,1.8-1.6,1.5c-1.4-0.2-2.8-0.2-4.1-0.2c-1.8,0.1-2.6,0.8-3,2.5
		c-0.2,0.7-0.3,1.4-0.3,2c0,1.3,0,2.7,0,4c0,0.7,0.2,1.4,0.4,2c0.3,1.2,1.2,1.9,2.4,1.9c0.9,0.1,1.8,0.1,2.8,0.1
		c0.9,0,1.8-0.1,2.8-0.1c0.7,0,0.8,0.1,0.8,0.8c0,2.5,0.3,2.2-2.1,2.6c-1.8,0.3-3.6,0.4-5.3,0.2c-2.8-0.3-4.3-1.5-5-4.2
		c-0.2-0.6-0.3-1.1-0.3-1.7C301.4,441.1,301.3,439.8,301.3,438.7z"/>
	<path class="st0" d="M246.6,438c0.5-0.2,0.5-0.5,0.6-0.9c0.9-2.2,1.8-4.5,2.7-6.7c0.1-0.3,0.3-0.6,0.4-1c0.1-0.4,0.4-0.5,0.8-0.5
		c1,0,2,0,2.9,0c0.3,0.5,0,0.9-0.2,1.3c-1.5,3.5-3,7.1-4.6,10.6c-0.5,1-0.7,2-0.7,3.2c0.1,1.2,0,2.3,0,3.5c0,0.6-0.1,0.7-0.7,0.8
		c-0.9,0-1.7,0-2.6,0c-0.4,0-0.6-0.2-0.6-0.6c0-1.3,0-2.5,0-3.8c0-0.9-0.2-1.8-0.5-2.7c-1.5-3.4-3-6.9-4.5-10.3
		c-0.2-0.4-0.3-0.7-0.5-1.1c-0.2-0.6-0.1-0.8,0.6-0.8c1,0,2,0,2.9,0.1c0.7,0.8,0.9,1.7,1.2,2.6C244.9,433.7,245.7,435.9,246.6,438z"
		/>
	<path class="st0" d="M417.4,448.2c-1.1,0.2-2.2,0.1-3.3,0.1c-0.3,0-0.4-0.2-0.4-0.4c0-0.5,0-0.9,0-1.4c0-4,0-8.1,0-12.1
		c0-0.5,0-0.9,0-1.4c0-0.3-0.2-0.5-0.6-0.5c-0.2,0-0.3,0-0.5,0c-0.5,0-1,0-1.6,0c-0.8-0.1-1.7,0.3-2.5-0.3c-0.2-0.9-0.1-1.8-0.1-2.7
		c0-0.2,0.2-0.4,0.4-0.5c0.3,0,0.6,0,0.9,0c4,0,7.9,0,11.9,0c0.2,0,0.5,0,0.7,0c0.3,0,0.5,0.2,0.6,0.5c0,0.1,0,0.2,0,0.3
		c-0.1,3,0.5,2.5-2.5,2.6c-0.9,0-1.8-0.2-2.7,0.2c-0.3,0.8-0.1,1.7-0.1,2.6c0,3.7,0,7.4,0,11.1C417.6,446.9,417.7,447.5,417.4,448.2
		z"/>
	<path class="st0" d="M433.1,440.3c0,2.4,0,4.7,0,7.1c0,0.8-0.1,0.9-0.9,0.9c-0.9,0-1.8,0.1-2.7-0.1c-0.4-0.9-0.2-1.8-0.2-2.7
		c0-3.6,0-7.3,0-10.9c0-0.3,0-0.7,0-1c0-1.1,0-1.1-1-1.1c-1.2,0-2.3,0-3.5,0c-0.6,0-0.8-0.1-0.7-0.7c0.1-3.3-0.6-2.8,2.6-2.8
		c3.3,0,6.7,0,10,0c0.5,0,0.9,0,1.4,0c0.3,0,0.4,0.2,0.4,0.4c0,0.1,0,0.1,0,0.2c0,3.3,0.6,2.8-2.6,2.8c-0.6,0-1.3,0-1.9,0
		c-0.7,0-0.8,0.1-0.8,0.8c0,0.4,0,0.8,0,1.2C433.1,436.4,433.1,438.3,433.1,440.3L433.1,440.3z"/>
	<path class="st0" d="M66.8,440.2c0-2.3,0-4.6,0-6.9c0-0.8-0.1-0.9-0.9-0.9c-1.3,0-2.5,0-3.8,0c-0.3,0-0.5-0.2-0.5-0.5
		c0-0.1,0-0.2,0-0.3c0-3-0.5-2.6,2.5-2.6c3.5,0,6.9,0,10.4,0c0.4,0,0.8,0,1.2,0.1c0.1,0,0.3,0.2,0.4,0.3c0,0,0,0.1,0,0.2
		c0,0.9,0.4,2-0.2,2.7c-0.5,0.7-1.5,0.2-2.3,0.3c-0.7,0.1-1.5,0-2.2,0c-0.4,0-0.6,0.3-0.6,0.7c0,0.5,0,0.9,0,1.4c0,4,0,7.9,0,11.9
		c0,0.5,0,0.9,0,1.4c0,0.3-0.1,0.4-0.4,0.5c-0.2,0-0.5,0-0.7,0c-0.9-0.1-1.7,0.2-2.6-0.1c-0.4-0.8-0.2-1.7-0.2-2.5
		C66.8,443.8,66.8,442,66.8,440.2L66.8,440.2z"/>
	<path class="st0" d="M139.7,437c0-2.2,0-4.4,0-6.6c0-0.3,0-0.7,0.1-1c0-0.2,0.2-0.4,0.4-0.4c0.3,0,0.7,0,1,0c2.8,0,2.4-0.4,2.4,2.4
		c0,3.6,0,7.1,0,10.7c0,0.4,0,0.8,0,1.2c0.1,1,0.5,1.5,1.5,1.5c0.7,0.1,1.5,0,2.2,0c1,0,2.1,0,3.1,0c0.8,0,0.9,0.1,0.9,0.7
		c0,3.3,0.6,2.7-2.6,2.8c-1.5,0-3,0-4.5,0c-0.7,0-1.4-0.1-2-0.3c-1.3-0.4-2-1.3-2.3-2.6c-0.1-0.7-0.2-1.5-0.2-2.2
		C139.6,441.1,139.7,439,139.7,437z"/>
	<path class="st0" d="M230.9,436.3c0,1.8,0,3.7,0,5.5c0,0.3,0,0.7,0,1c0.1,1.4,0.6,1.8,2,1.8c1.7,0,3.3,0,5,0c0.8,0,0.9,0.1,0.9,0.9
		c0,3.1,0.5,2.5-2.5,2.6c-1.6,0-3.2,0-4.8,0c-3-0.1-4.3-1.4-4.4-4.4c-0.1-4.7,0-9.3,0-14c0-0.2,0-0.3,0-0.5c0-0.3,0.2-0.4,0.4-0.4
		c1,0,2,0,2.9,0c0.3,0,0.4,0.2,0.4,0.5c0,0.4,0,0.8,0,1.2C230.9,432.5,230.9,434.4,230.9,436.3z"/>
	<path class="st0" d="M82,438.5c0,2.6,0,5.3,0,7.9c0,0.4,0,0.8,0,1.2c0,0.3-0.2,0.6-0.5,0.6c-1,0-2,0-2.9,0c-0.2,0-0.4-0.2-0.4-0.4
		c0-0.3,0-0.7,0-1c0-5.5,0-10.9,0-16.4c0-0.2,0-0.3,0-0.5c0-0.9,0.1-0.9,1-1c0.8,0,1.6,0,2.4,0c0.2,0,0.4,0.2,0.4,0.4
		c0,0.4,0,0.8,0,1.2C82,433.2,82,435.9,82,438.5z"/>
	<path class="st0" d="M406.3,438.6c0,2.7,0,5.3,0,8c0,0.4,0,0.8,0,1.2c0,0.4-0.2,0.5-0.6,0.5c-0.1,0-0.2,0-0.3,0
		c-0.9-0.1-1.8,0.1-2.7-0.1c-0.5-0.9-0.2-1.8-0.2-2.7c0-4.8,0-9.6,0-14.3c0-0.3,0-0.7,0-1c0-1.1,0-1.1,1.2-1.2c0.6,0,1.3,0,1.9,0
		c0.7,0,0.8,0.1,0.8,0.8C406.3,432.7,406.3,435.6,406.3,438.6L406.3,438.6z"/>
	<path class="st0" d="M294.6,438.6c0-2.5,0-5.1,0-7.6c0-0.4,0-0.8,0-1.2c0-0.8,0.1-0.8,0.9-0.9c0.1,0,0.2,0,0.3,0
		c3,0.1,2.6-0.5,2.6,2.5c0,5,0,9.9,0,14.9c0,0.5,0,0.9,0,1.4c0,0.3-0.2,0.6-0.5,0.6c-0.9,0-1.8,0-2.8,0c-0.4,0-0.6-0.3-0.6-0.7
		c0-1.4,0-2.8,0-4.1C294.6,441.8,294.6,440.2,294.6,438.6z"/>
	<path class="st0" d="M239.9,474.2c0,2.5,0,5.1,0,7.6c0,1.2-0.2,2.4-0.6,3.5c-0.7,2.1-2.4,3.4-5.1,3.2c-0.2,0-0.3-0.1-0.5-0.1
		c-1.4-0.1-1.4-0.1-1.3-1.6c0-0.4,0.3-0.6,0.7-0.6s0.8,0,1.2,0c1.5,0,2.4-0.7,2.8-2.1c0.3-0.9,0.4-1.8,0.4-2.7c0-3.2,0-6.3,0-9.5
		c0-1.9,0-3.8,0-5.7c0-0.3,0-0.7,0.1-1c0-0.3,0.2-0.4,0.4-0.4c0.5,0,0.9,0,1.4,0c0.3,0,0.5,0.2,0.5,0.5c0,0.5,0,0.9,0,1.4
		C239.9,469.3,239.9,471.7,239.9,474.2L239.9,474.2z"/>
	<path class="st0" d="M276.8,469.4c0,3.1,0,6.2,0,9.3c0,0.5,0,0.9-0.1,1.4c0,0.2-0.2,0.4-0.4,0.5c-0.5,0-1,0.1-1.5,0
		c-0.3,0-0.5-0.3-0.5-0.6c0-0.3,0-0.7,0-1c0-6.5,0-13,0-19.6c0-0.3,0-0.7,0-1s0.2-0.5,0.5-0.6c0.2,0,0.5,0,0.7,0
		c1.3,0,1.4,0,1.4,1.4C276.8,462.6,276.8,466,276.8,469.4z"/>
	<path class="st0" d="M470.3,469.2c0,3.2,0,6.5,0,9.7c0,0.5,0,0.9,0,1.4c0,0.3-0.2,0.4-0.4,0.4c-0.5,0-0.9,0-1.4,0
		c-0.3,0-0.5-0.2-0.6-0.5c0-0.3,0-0.7,0-1c0-6.5,0-13,0-19.5c0-1.8-0.1-1.7,1.7-1.7c0.6,0,0.7,0.2,0.7,0.7s0,0.9,0,1.4
		C470.3,463.1,470.3,466.1,470.3,469.2z"/>
	<path class="st0" d="M138.8,469.2c0,3.2,0,6.5,0,9.7c0,0.5,0,0.9,0,1.4c0,0.3-0.2,0.4-0.4,0.4c-0.5,0-0.9,0-1.4,0
		c-0.3,0-0.5-0.2-0.6-0.5c0-0.3,0-0.7,0-1c0-6.6,0-13.1,0-19.7c0-1.6,0-1.6,1.7-1.5c0.6,0,0.7,0.2,0.7,0.7s0,0.9,0,1.4
		C138.8,463.1,138.8,466.1,138.8,469.2z"/>
	<path class="st0" d="M225.7,469.2c0-3.1,0-6.2,0-9.3c0-0.5,0-0.9,0-1.4c0-0.3,0.2-0.5,0.5-0.5c0.1,0,0.2,0,0.3,0
		c1.5-0.1,1.5,0,1.5,1.5c0,6.6,0,13.3,0,19.9c0,0.3,0,0.6,0,0.9s-0.2,0.5-0.6,0.5c-0.1,0-0.2,0-0.3,0c-1.5,0-1.6,0-1.5-1.5
		C225.7,475.9,225.7,472.5,225.7,469.2z"/>
	<path class="st0" d="M385.7,469.3c0,3.2,0,6.3,0,9.5c0,0.5,0,0.9-0.1,1.4c0,0.1-0.1,0.4-0.3,0.4c-0.6,0.2-1.2,0.2-1.9,0
		c-0.1,0-0.2-0.3-0.2-0.4c0-0.3,0-0.6,0-0.9c0-6.6,0-13.2,0-19.9c0-1.6,0-1.6,1.7-1.5c0.6,0,0.7,0.2,0.7,0.7s0,0.9,0,1.4
		C385.7,463.1,385.7,466.2,385.7,469.3z"/>
	<path class="st0" d="M434.8,484.7c0-0.3,0-0.6,0-0.9s0.2-0.5,0.5-0.6c1.8-0.3,2.4,0.3,2,2.1c0,0.2-0.1,0.5-0.4,0.5
		c-0.6,0.2-1.2,0.2-1.8,0c-0.1,0-0.3-0.2-0.3-0.4C434.8,485.2,434.8,484.9,434.8,484.7z"/>
	<path class="st0" d="M311.1,484.4c0,1.4-0.1,1.6-1.5,1.5c-0.2,0-0.3,0-0.5,0c-0.3,0-0.5-0.2-0.6-0.5c0-0.1,0-0.2,0-0.3
		c0-1.9-0.1-1.9,1.8-1.8c0.6,0,0.7,0.2,0.8,0.7C311.1,484,311.1,484.2,311.1,484.4z"/>
	<path class="st0" d="M404.2,460.5c0,1.4-0.2,1.6-1.6,1.5c-0.9,0-1-0.2-1.1-1.2c0-0.2,0-0.5,0-0.7c0-0.7,0.2-0.9,0.9-1
		c0.2,0,0.3,0,0.5,0C404.1,459.2,404.2,459.3,404.2,460.5z"/>
	<path class="st0" d="M92,460.6c0,0.2,0,0.5,0,0.7c0,0.5-0.3,0.7-0.8,0.7c-0.2,0-0.3,0-0.5,0c-1.2,0-1.4-0.2-1.4-1.4
		c0-0.2,0-0.3,0-0.5c0-0.7,0.2-0.8,1-0.9c0.1,0,0.2,0,0.3,0C92,459.2,92.1,459.3,92,460.6z"/>
	<path class="st0" d="M39.4,460.6c0,0.2,0,0.5,0,0.7c0,0.4-0.3,0.6-0.6,0.7c-0.4,0-0.8,0-1.2,0c-0.5,0-0.7-0.3-0.8-0.7
		c0-0.1,0-0.1,0-0.2c-0.1-1.7,0.1-2,1.9-1.8c0.5,0,0.7,0.2,0.8,0.7C39.4,460.1,39.4,460.4,39.4,460.6L39.4,460.6z"/>
	<path class="st0" d="M408.1,460.7c0,0.2,0,0.5,0,0.7c0,0.3-0.2,0.5-0.5,0.5c-2,0.1-1.9,0.1-1.9-1.8c0-0.8,0.2-0.9,0.9-0.9
		C408,459.2,408.1,459.2,408.1,460.7z"/>
	<path class="st0" d="M35.3,460.6c0,1.3-0.1,1.4-1.3,1.3c-0.2,0-0.3,0-0.5,0c-0.3,0-0.5-0.2-0.6-0.5c0-0.2,0-0.5,0-0.7
		c0-1.5,0.1-1.6,1.5-1.5c0.8,0,0.9,0.1,0.9,0.9C35.3,460.3,35.3,460.5,35.3,460.6z"/>
	<path class="st0" d="M51.2,484.9c0-0.1,0,0.2,0,0.5c0,0.2-0.1,0.4-0.3,0.4c-0.6,0.2-1.2,0.2-1.8,0c-0.1,0-0.2-0.2-0.2-0.2
		c-0.1-0.2-0.1-0.4-0.1-0.7c0-1.8-0.1-1.7,1.8-1.7c0.4,0,0.6,0.3,0.6,0.7C51.2,484.1,51.2,484.3,51.2,484.9z"/>
	<path class="st0" d="M52.7,484.5c0-1.3,0-1.4,1.3-1.3c0.2,0,0.3,0,0.5,0c0.4,0,0.6,0.3,0.6,0.7c0,0.1,0,0.2,0,0.3
		c0,1.8,0,1.7-1.8,1.7c-0.4,0-0.6-0.3-0.6-0.7C52.7,485,52.7,484.8,52.7,484.5z"/>
	<path class="st0" d="M173.1,484.7c0,0.1,0,0.4,0,0.7c0,0.2-0.1,0.4-0.3,0.4c-0.6,0.2-1.2,0.2-1.8,0c-0.1,0-0.2-0.3-0.3-0.4
		c-0.1-0.3,0-0.6,0-0.9c0-1.3,0-1.4,1.3-1.4c1.1,0,1.1,0.1,1.1,1.2C173.1,484.4,173.1,484.5,173.1,484.7z"/>
	<path class="st0" d="M177,484.5c0,0.3,0,0.6,0,0.9s-0.2,0.5-0.6,0.5c-2,0.1-1.9,0-1.9-1.8c0-0.7,0.2-0.9,0.9-0.9c0.1,0,0.1,0,0.2,0
		C176.9,483.2,177,483.2,177,484.5z"/>
	<path class="st0" d="M184.5,484.5c0-0.2,0-0.3,0-0.5c0-0.6,0.2-0.7,0.7-0.8c1.8-0.1,1.8-0.1,1.8,1.6c0,1.1-0.1,1.1-1.2,1.1
		c-0.2,0-0.3,0-0.5,0c-0.5,0-0.7-0.2-0.7-0.7C184.5,484.9,184.5,484.7,184.5,484.5z"/>
	<path class="st0" d="M255.1,484.5c0-0.2,0-0.3,0-0.5c0-0.6,0.2-0.7,0.7-0.8c1.9,0,1.8-0.1,1.7,1.8c0,0.8-0.1,0.9-0.9,0.9
		c-0.3,0-0.6,0-0.9,0c-0.5,0-0.7-0.2-0.7-0.7C255.1,484.9,255.1,484.7,255.1,484.5z"/>
	<path class="st0" d="M312.5,484.3c0-0.1,0-0.3,0-0.5c0-0.3,0.2-0.5,0.5-0.5c2.1-0.1,1.9-0.1,1.9,1.8c0,0.8-0.1,0.9-0.9,0.9
		C312.6,486,312.5,485.9,312.5,484.3z"/>
	<path class="st0" d="M292.8,460.5c0-0.2,0-0.3,0-0.5c0-0.6,0.2-0.8,0.9-0.8c1.5-0.1,1.6,0,1.6,1.5c0,0.2,0,0.5,0,0.7
		s-0.1,0.3-0.3,0.4c-0.6,0.3-1.2,0.3-1.8,0c-0.1,0-0.2-0.3-0.3-0.4C292.7,461.1,292.8,460.8,292.8,460.5L292.8,460.5z"/>
	<path class="st0" d="M299.1,460.5c0,0.3,0,0.6,0,0.9s-0.2,0.5-0.6,0.5c-0.3,0-0.6,0-0.9,0c-0.8,0-1-0.2-1-1.1c0-0.2,0-0.5,0-0.7
		c0-0.9,0.1-1,1-1c0.2,0,0.5,0,0.7,0c0.5,0,0.7,0.2,0.7,0.8C299.1,460.2,299.1,460.4,299.1,460.5L299.1,460.5z"/>
	<path class="st0" d="M157.2,460.6c0,0.3,0,0.6,0,0.9s-0.2,0.5-0.6,0.5c-1.6,0.2-1.9,0-1.9-1.7c0-1,0.1-1,1.1-1c0.2,0,0.3,0,0.5,0
		c0.7,0,0.8,0.2,0.8,0.8C157.2,460.2,157.2,460.4,157.2,460.6L157.2,460.6z"/>
	<path class="st0" d="M422,460.5c0,0.2,0,0.3,0,0.5c0,0.8-0.2,0.9-0.9,1c-1.4,0.1-1.6-0.1-1.5-1.5c0-0.2,0-0.5,0-0.7
		c0-0.3,0.2-0.4,0.4-0.5c0.4,0,0.8-0.1,1.2,0c0.6,0,0.7,0.2,0.7,0.7C422,460.1,421.9,460.3,422,460.5
		C421.9,460.5,421.9,460.5,422,460.5z"/>
	<path class="st0" d="M158.8,460.4c0-0.1,0-0.4,0-0.7c0-0.3,0.3-0.5,0.6-0.5c1.9-0.1,1.9,0,1.9,1.7c0,0.9-0.2,1.1-1.1,1.1
		c-0.1,0-0.1,0-0.2,0c-1,0-1.1-0.2-1.2-1.2C158.8,460.7,158.8,460.7,158.8,460.4z"/>
	<path class="st0" d="M121.6,461c0-0.1,0,0.2,0,0.5c0,0.1-0.2,0.4-0.3,0.4c-0.6,0.1-1.2,0.2-1.8-0.1c-0.1,0-0.2-0.2-0.2-0.2
		c-0.1-0.2-0.1-0.4-0.1-0.7c-0.1-1.6,0.1-1.8,1.7-1.6c0.5,0,0.7,0.2,0.7,0.7C121.6,460.2,121.6,460.4,121.6,461z"/>
	<path class="st0" d="M115.2,460.5c0-0.2,0-0.5,0-0.7c0-0.3,0.2-0.5,0.5-0.6c2-0.1,1.9,0,1.9,1.8c0,0.6-0.2,0.8-0.8,0.9
		c-0.3,0-0.6,0-0.9,0c-0.5,0-0.7-0.2-0.7-0.7C115.2,461,115.2,460.7,115.2,460.5L115.2,460.5z"/>
	<path class="st0" d="M322.5,460.6c0-0.2,0-0.5,0-0.7c0-0.1,0-0.2,0.1-0.3c0.4-0.6,1-0.3,1.5-0.4c0.3,0,0.7,0.1,0.8,0.5
		c0.1,0.3,0.1,0.7,0.1,1c0,1.1-0.2,1.3-1.3,1.3c-1,0-1.1-0.2-1.2-1.2C322.5,460.7,322.5,460.7,322.5,460.6L322.5,460.6z"/>
	<path class="st0" d="M385.1,397.5c-0.8-5.5-1.7-11.1-2.5-16.6c-0.9-5.6-1.7-11.2-2.6-16.8c-0.9-5.8-1.8-11.5-2.7-17.3
		c-0.3-2.1-0.7-4.2-1-6.3c-0.1-0.3-0.3-0.5-0.6-0.5c-0.2,0-0.3,0-0.5,0c-5.4,0-10.9,0-16.4,0c-0.6,0-1,0.1-1.2,0.7
		c-0.1,0.3-0.3,0.5-0.4,0.8c-6.3,13.3-12.6,26.5-18.9,39.8c-4.7,9.9-9.5,19.9-14.2,29.8c-0.3,0.5-0.6,0.9-0.5,1.5c0.3,0,0.7,0,1,0.2
		c4.2,0,8.3,0,12.5,0c0.2,0,0.5,0,0.7,0c0.4,0,0.6-0.1,0.8-0.5c0.2-0.5,0.4-0.9,0.6-1.3c1.9-4,3.7-7.9,5.5-11.8
		c0.2-0.4,0.4-0.8,0.6-1.2c0.1-0.2,0.4-0.4,0.7-0.4c0.4,0,0.8,0,1.2,0c5.2,0,10.4,0,15.6,0c2.1,0,4.3,0,6.4,0c1,0,1.1,0,1.2,1
		c0.4,2.8,0.7,5.6,1.1,8.4c0.2,1.7,0.5,3.4,0.7,5.1c0,0.4,0.2,0.7,0.6,0.7c0.2,0,0.3,0,0.5,0c4.3,0,8.7,0,13,0c0.3,0,0.7,0.1,1-0.2
		c0-0.2,0-0.5,0-0.7C386.6,407.1,385.8,402.3,385.1,397.5z M368.5,383.9c0,0.2-0.2,0.3-0.3,0.3c-0.2,0-0.5,0-0.7,0
		c-5.2,0-10.5,0-15.7,0c-0.2,0.1-0.4,0-0.9,0c4.6-10.4,9.1-20.5,13.6-30.7c0-0.1,0.2-0.1,0.3-0.2c0.3,0,0.2,0.3,0.3,0.5
		c0.7,5.7,1.4,11.4,2,17.2c0.5,4,0.9,8,1.4,12C368.5,383.3,368.5,383.6,368.5,383.9z"/>
	<path class="st0" d="M218.8,458c-1.1,0-1.2,0.1-1.2,1.3c0,0.4,0,0.8,0,1.2c0,5.2,0,10.4,0,15.6c0,0.6,0,1.1-0.1,1.7
		c-0.1,0.5-0.3,0.7-0.8,0.7c-1.4,0-2.9,0-4.3,0c-0.1,0-0.2,0-0.3,0c-1.3-0.2-1.9-0.9-1.9-2.2s0-2.7,0-4c0-1-0.1-1.9-0.3-2.9
		c-0.5-2.4-1.9-3.9-4.3-4.5c-2.4-0.6-4.8-0.3-7.2,0.2c-0.9,0.2-1.2,0.6-1.3,1.4c-0.2,1.4-0.5,2.7-0.5,4.1c-0.1,2.5-0.1,5,0.2,7.6
		c-0.3,0.1-0.4,0.2-0.4,0.2c-2.8,0-5.7,0-8.5,0c-0.7,0-0.9-0.2-0.9-0.8c0-0.4,0-0.8,0-1.2c0-3.2,0-6.5,0-9.7c0-0.5-0.1-0.9-0.1-1.4
		c-0.1-0.1-0.2-0.4-0.3-0.4c-0.6-0.2-1.3-0.2-1.9,0c-0.1,0-0.2,0.2-0.2,0.4c0,0.6,0,1.1,0,1.6c0,3.6,0,7.1,0,10.6
		c0,0.7-0.2,0.9-0.9,0.9c-2.5,0-5.1,0-7.6,0c-0.7,0-0.9-0.2-0.9-0.8c0-0.5,0-0.9,0-1.4c0-3.5,0-6.9,0-10.4c0-0.9-0.1-1-1-1
		c-0.3,0-0.6,0-0.9,0c-0.4,0-0.6,0.2-0.6,0.5c0,0.5,0,0.9,0,1.4c0,3.2,0,6.3,0,9.5c0,0.5,0,0.9,0,1.4c0,0.6-0.2,0.8-0.7,0.8
		c-0.1,0-0.1,0-0.2,0c-2.1,0-4.3,0-6.4,0c-0.9,0-1-0.1-1-1c0-0.4,0-0.8,0-1.2c0-3.1,0-6.2,0-9.3c0-0.6,0.3-1.3-0.2-1.8
		c-0.4-0.4-1.1-0.2-1.7-0.3c-2.2-0.3-4.5-0.3-6.7-0.2c-2.9,0.1-4.8,1.5-5.4,4c-0.7,2.6-0.7,5.3,0,8c0.6,2.1,2,3.4,4.1,3.8
		c1.1,0.2,2.2,0.3,3.3,0.3c16.8,0,33.7,0,50.5,0c0.3,0,0.7-0.1,1,0c0.6,0.1,0.8-0.4,1.1-0.9c1.2,0.9,2.6,0.9,4.1,0.9
		c1.3,0,2.7,0,4,0c0.3,0,0.7,0,1,0c0.4,0,0.6-0.2,0.6-0.5c0-0.5,0-0.9,0-1.4c0-6.2,0-12.5,0-18.7c0-0.3,0-0.7,0-1
		C220,458.1,219.9,458,218.8,458z M161.9,472.7c0,1.6,0,3.2,0,4.8c0,0.7-0.2,0.8-0.8,0.8c-1.6,0-3.1,0-4.7,0
		c-2.4-0.1-3.5-1.7-3.8-3.3c-0.3-1.7-0.4-3.4,0.1-5.1c0.5-1.9,1.6-2.8,3.5-3c1.7-0.2,3.3,0,5,0c0.5,0,0.7,0.2,0.7,0.8
		C161.9,469.4,161.9,471,161.9,472.7z M207.5,477.6c0,0.7-0.1,0.8-0.8,0.8c-1,0-2.2,0-3.3,0c-1.2,0-2.3,0-3.5,0
		c-0.3,0-0.5-0.2-0.6-0.5c-0.1-0.6-0.2-1.1-0.3-1.7c-0.1-2.1-0.1-4.3,0-6.4c0-0.1,0-0.2,0-0.3c0.2-2.5,0.5-2.8,3-2.8
		c1,0,2.1,0.2,3,0.6c1.1,0.5,1.8,1.4,2.2,2.5c0.2,0.6,0.3,1.2,0.3,1.9C207.6,473.7,207.5,475.6,207.5,477.6z"/>
	<path class="st0" d="M460.3,457.9c-0.1,0-0.2,0-0.3,0c-0.3,0.1-0.5,0.3-0.5,0.6c0,0.6,0,1.1,0,1.6c0,5.5,0,10.9,0,16.3
		c0,0.5,0,0.9,0,1.4s-0.1,0.7-0.7,0.7c-2.1,0-4.3,0-6.4,0c-0.1,0-0.1,0-0.2,0c-0.3-0.1-0.5-0.3-0.5-0.6c0-0.6,0-1.1,0-1.6
		c0-5.4,0-10.7,0-16.1c0-0.6,0-1.1,0-1.6s-0.1-0.7-0.7-0.7c-1.7-0.1-1.7-0.1-1.7,1.5c0,5.6,0,11.2,0,16.8c0,0.5,0,0.9,0,1.4
		c0,0.6-0.2,0.8-0.7,0.8c-2.1,0-4.1,0-6.1,0c-0.4,0-0.6-0.3-0.6-0.7c0-0.4,0-0.8,0-1.2c0-2,0-3.9,0-5.9c0-0.7-0.1-1.5-0.2-2.2
		c-0.3-2.5-2.4-3.8-4.4-3.9c-2.5-0.1-4.8,0.4-7.2,0.8c-0.6,0.1-0.7,0.5-0.6,1.4c0,0.4,0.2,0.5,0.9,0.5c0.3,0,0.7-0.1,1-0.1
		c1.4-0.1,2.9-0.4,4.3-0.4c2.3,0,3.5,1,3.6,3.1c0.1,2.4,0.1,4.7,0.1,7.1c0,0.3,0,0.7-0.1,1s-0.3,0.5-0.6,0.5c-0.2,0-0.5,0-0.7,0
		c-4.9,0-9.8,0-14.7,0c-1.4,0-1.4,0-1.4-1.3c0-0.8,0-1.6,0-2.4c0-2.9,0-5.8,0-8.7c0-1.2-0.1-1.2-1.2-1.2c-0.2,0-0.5,0-0.7,0
		c-0.4,0-0.6,0.2-0.6,0.5c0,0.5,0,0.9,0,1.4c0,3.2,0,6.3,0,9.5c0,0.5,0,0.9,0,1.4c0,0.6-0.2,0.8-0.7,0.8s-1.1,0-1.7,0
		c-1.3,0-2.5,0-3.8,0c-2.2,0-2,0.2-2-1.9c0-0.3,0-0.7,0-1c0-2.9,0-5.8,0-8.7c0-0.5,0-0.9,0-1.4c0-0.3-0.2-0.6-0.5-0.6
		c-2.9-0.3-5.7-0.5-8.5-0.2c-3.3,0.4-4.6,1.9-5.2,4.7c-0.5,2.2-0.5,4.5,0,6.7c0.6,2.5,1.8,3.9,4.5,4.4c1,0.2,2.1,0.3,3.1,0.3
		c9.2,0,18.5,0,27.7,0s18.4,0,27.3-0.1c0.6,0,1.1,0,1.6,0c0.3,0,0.6-0.2,0.6-0.5s0-0.7,0-1c0-6.5,0-13.1,0-19.7
		C461.8,457.9,461.8,457.8,460.3,457.9z M408.7,472.8c0,1.6,0,3.1,0,4.7c0,0.9-0.1,1-1,1c-1.4,0-2.8,0-4.1,0c-2.6-0.1-4-1.6-4.2-4.1
		c-0.1-1.1-0.1-2.3,0-3.5c0.3-2.7,2-3.9,4-3.9c1.5,0,3,0,4.5,0.1c0.7,0,0.8,0.2,0.8,0.8C408.7,469.4,408.7,471.1,408.7,472.8z"/>
	<path class="st0" d="M350.9,469.2c-0.9-2.6-2.6-4.3-5.4-4.7c-2.4-0.3-4.6,0.3-6.4,2c-1.2,1.1-2.2,2.4-3.1,3.7
		c-0.2,0.3-0.3,0.8-0.9,0.9c0-0.5,0-0.9,0-1.3c0-3.3,0-6.6,0-9.9c0-0.5,0-0.9,0-1.4c0-0.4-0.2-0.6-0.5-0.6s-0.7,0-1,0
		c-0.7,0-0.9,0.2-0.9,0.8c0,0.5,0,0.9,0,1.4c0,5.2,0,10.5,0,15.7c0,0.3,0,0.6,0,0.9c0,1.7,0.1,1.7-1.7,1.7c-1.2,0-2.3,0-3.5,0
		c-0.5,0-1.1,0-1.7,0s-0.8-0.2-0.8-0.7s0-0.9,0-1.4c0-3.3,0-6.6,0-9.9c0-1.7,0-1.7-1.8-1.6c-0.5,0-0.7,0.2-0.7,0.8
		c0,0.5,0,0.9,0,1.4c0,3,0,6,0,9c0,0.6,0,1.1-0.1,1.6c-0.1,0.7-0.2,0.9-1,0.9c-2.3,0-4.6,0-6.9,0c-1.5,0-1.5-0.1-1.5-1.6
		c0-3.6,0-7.1,0-10.6c0-1.5-0.1-1.6-1.6-1.5c-0.8,0.1-0.9,0.2-0.9,1c0,1,0,2.1,0,3.1c0,2.7,0,5.4,0,8.1c0,1.4,0,1.4-1.3,1.4
		c-1.9,0-3.8,0-5.7,0c-0.2,0-0.5,0-0.7,0c-0.4-0.1-0.6-0.3-0.6-0.6c0-0.5,0-0.9,0-1.4c0-3.2,0-6.5,0-9.7c0-2.1,0.1-1.9-1.8-2
		c-0.1,0-0.2,0-0.3,0c-2.1-0.3-4.1-0.2-6.2-0.2c-0.9,0-1.6,0.2-2.4,0.5c-1.4,0.4-2.4,1.3-2.9,2.7c-0.3,0.6-0.5,1.2-0.6,1.8
		c-0.2,2-0.3,4,0,6c0.4,2.4,1.4,4.3,4.8,4.9c1,0.1,2.1,0.2,3.1,0.2c17.8,0,35.5,0,53.3,0c0.3,0,0.7,0,1,0c1-0.1,1.1-0.1,1.1-1.1
		c0-2.6,0-5.2,0-7.8C351.3,470.9,351.2,470,350.9,469.2z M299.9,468.5c-0.1,1.6-0.1,2.9-0.1,4.3c0,1.6,0,3.2,0,4.8
		c0,0.6-0.2,0.7-0.7,0.7c-1.6,0-3.2,0-4.8-0.1c-1.9-0.1-3.1-1.1-3.6-3s-0.5-3.9,0.1-5.8c0.5-1.6,1.6-2.4,3.1-2.6
		c1.8-0.2,3.6-0.1,5.4,0c0.3,0,0.5,0.2,0.6,0.5C299.9,467.7,299.9,468.1,299.9,468.5z M348.9,477.6c0,0.8-0.1,0.9-1,1
		c-1.7,0-3.3,0-5,0c-0.4-0.2-0.6-0.2-0.9-0.2c-2,0-3.9,0-5.9,0c-1,0-1.1-0.1-1-1.1c0-0.5,0.1-1,0.2-1.5c0.8-3,2.4-5.5,4.7-7.5
		c1.4-1.2,3-1.9,4.9-1.4c1.7,0.4,2.8,1.5,3.5,3.1c0.3,0.7,0.5,1.4,0.5,2.2C348.9,474,348.9,475.8,348.9,477.6z"/>
	<path class="st0" d="M90.2,464.9c-0.2,0-0.3,0-0.5,0c-0.3,0.1-0.5,0.3-0.5,0.6c0,0.5,0,0.9,0,1.4c0,3.1,0,6.1,0,9.2
		c0,0.6,0,1.1-0.1,1.6c-0.1,0.7-0.3,0.9-1,0.9c-1.9,0-3.8,0-5.7,0c-0.2,0-0.3-0.1-0.5-0.1c-0.2-0.1-0.4-0.3-0.4-0.5
		c-0.1-0.3-0.1-0.7-0.1-1c0-1.6,0-3.2,0-4.8c0-2.2-0.4-4.4-0.8-6.5c-0.1-0.6-0.3-0.7-0.8-0.7c-0.2,0-0.5,0-0.7,0
		c-0.3,0-0.5,0.2-0.5,0.5c0,0.7,0,1.4,0.1,2.1c0.3,1.3,0.3,2.7,0.3,4.1c0,1.3,0,2.5,0,3.8c0,3.6,0.6,2.9-3,3c-0.6,0-1.2-0.1-1.8-0.4
		c-0.9-0.5-1-0.5-0.8-1.6c0-0.5,0.1-1.1,0.1-1.7c0-2.3,0-4.6,0-6.9c0-1.3-0.1-1.4-1.4-1.4c-0.2,0-0.3,0-0.5,0
		c-0.3,0.1-0.5,0.3-0.5,0.6c0,0.5,0,0.9,0,1.4c0,2,0,3.9,0,5.9c0,1-0.1,1.9-0.6,2.8c-0.3,0.6-0.7,1.2-1.4,1.2c-1.1,0-2.2,0-3.3,0
		c-0.3,0-0.5-0.3-0.5-0.6c0-0.5,0-0.9,0-1.4c0-2.7,0-5.3,0-8c0-0.5,0-0.9,0-1.4c-0.1-0.3-0.3-0.5-0.6-0.5c-0.4,0-0.8,0-1.2,0
		c-0.4,0-0.6,0.2-0.6,0.6c0,0.5,0,0.9,0,1.4c0,2.7,0,5.3,0,8c0,0.4,0,0.8,0,1.2c-0.1,0.5-0.2,0.7-0.8,0.7c-2.7,0-5.4,0-8.1,0
		c-0.1,0-0.1,0-0.2,0c-0.4,0-0.7-0.2-0.7-0.6c0-0.6,0-1.1,0-1.6c0-3.5,0-6.9,0-10.4c0-0.9-0.1-1-1-1c-0.3,0-0.6,0-0.9,0
		c-0.4,0-0.6,0.2-0.6,0.5c0,0.5,0,0.9,0,1.4c0,3.1,0,6.1,0,9.2c0,0.6,0,1.1-0.1,1.6c-0.1,0.7-0.3,0.9-1,0.9c-2.1,0-4.3,0-6.4,0
		c-0.7,0-0.8-0.1-0.9-0.9c0-0.6,0-1.1,0-1.6c0-3,0-6,0-9c0-0.5,0-0.9,0-1.4c0-0.4-0.2-0.6-0.6-0.7c-2.7-0.3-5.4-0.4-8.1-0.2
		c-2.4,0.2-4.6,0.9-5.4,4.7c-0.3,1.7-0.2,3.3-0.2,5c0.1,0.8,0.2,1.7,0.5,2.5c0.6,1.9,2,3,3.9,3.5c0.9,0.3,1.9,0.4,2.9,0.4
		c11.2,0,22.4,0,33.6,0c1.1,0,2.2-0.2,3.1-0.9c0.4-0.3,0.7-0.3,1.1,0c1.1,0.7,2.3,0.9,3.5,0.9c2.2,0,4.5,0,6.7,0
		c2.3,0,4.5,0,6.4,0.1c0.5,0,0.9,0,1.4,0c0.4,0,0.6-0.3,0.6-0.7c0-0.2,0-0.5,0-0.7c0-4.4,0-8.8,0-13.2
		C91.6,464.9,91.5,464.9,90.2,464.9z M40,468.2c-0.1,1.7-0.1,3-0.1,4.4c0,1.6,0,3.2,0,4.8c0,0.8-0.1,0.9-0.9,0.9c-1.4,0-2.9,0-4.3,0
		c-2.4-0.1-3.7-1.5-4-3.4c-0.3-1.8-0.4-3.7,0.2-5.5c0.5-1.6,1.6-2.5,3.3-2.7c1.7-0.2,3.4-0.1,5.2,0c0.3,0,0.5,0.2,0.6,0.5
		C40,467.5,40,467.9,40,468.2z"/>
	<path class="st0" d="M130.5,460.1c0-0.5,0-1.1,0-1.7c0-0.5-0.2-0.7-0.7-0.7c-1.7-0.1-1.7-0.1-1.7,1.5c0,5.6,0,11.2,0,16.8
		c0,0.5,0,0.9,0,1.4c0,0.6-0.1,0.8-0.8,0.8c-2,0-4.1,0-6.2,0c-1.4,0-1.4,0-1.4-1.3c0-0.3,0-0.7,0-1c0-3.1,0-6.2,0-9.3
		c0-0.5-0.1-0.9-0.1-1.4c-0.1-0.2-0.3-0.4-0.5-0.4s-0.5,0-0.7,0c-1.3,0-1.4,0-1.4,1.3c0,0.4,0,0.8,0,1.2c0,3.1,0,6.2,0,9.3
		c0,1.8,0,1.8-1.7,1.8c-1.6,0-3.1,0-4.7,0c-2.3,0-2.1,0.2-2.1-2.2c0-3.4,0-6.8,0-10.2c0-1.1-0.1-1.3-1.2-1.4
		c-1.4-0.2-2.9-0.3-4.3-0.4c-0.5,0-0.9,0-1.4,0c-3.1,0.3-5,1.5-5.6,4.8c-0.4,2.4-0.4,4.7,0,7.1c0.2,0.8,0.4,1.6,0.8,2.3
		c0.6,1,1.4,1.7,2.5,2c0.7,0.2,1.4,0.3,2.2,0.3s1.6,0,2.4,0c2.4,0,2.3-0.3,2.1,2.3c0,0.6-0.2,1.2-0.4,1.7c-0.3,1-1.1,1.6-2.2,1.6
		c-1,0.1-2.1,0.1-3.1-0.1c-0.5-0.1-0.9-0.2-1.4-0.2c-0.4,0-0.6,0.2-0.6,0.5c0,0.2,0,0.3,0,0.5c0,0.9,0.1,1.1,0.9,1.2
		c1.5,0.3,3,0.4,4.5,0.3c1.8-0.1,3-1,3.8-2.6c0.6-1.3,0.9-2.6,1-4c0.1-1.2,0.1-1.2,1.2-1.2c0.4,0,0.8,0,1.2,0c5.8,0,11.7,0,17.6,0
		c0.6,0,1.1,0,1.6,0c0.3-0.1,0.5-0.3,0.5-0.6c0-0.5,0-0.9,0-1.4c0-3.1,0-6.2,0-9.3C130.6,466.4,130.6,463.4,130.5,460.1z M106,472.5
		c0,1.7,0,3.3,0,5c0,0.8-0.2,0.9-0.9,0.9c-1.2,0-2.3,0-3.5,0c-1.4,0-2.4-0.8-2.9-2.1c-0.3-0.7-0.5-1.4-0.5-2.2c0-1.1,0-2.2,0-3.3
		c0-0.6,0.2-1.1,0.3-1.7c0.5-1.6,1.6-2.5,3.3-2.6c1.1-0.1,2.2,0,3.3,0c0.6,0,0.8,0.2,0.8,0.9C106.1,469.1,106,470.8,106,472.5z"/>
	<path class="st0" d="M377,457.9c-1.7-0.1-1.7-0.1-1.7,1.5c0,5.6,0,11.2,0,16.8c0,0.5,0,0.9,0,1.4c-0.1,0.6-0.2,0.8-0.9,0.8
		c-1.5,0-3,0-4.5,0c-2.8,0-2.5,0.3-2.5-2.5c0-3.3,0-6.6,0-9.9c0-1.2-0.1-1.4-1.2-1.5c-1.7-0.1-3.3-0.4-5-0.4c-0.8,0-1.6,0.1-2.4,0.3
		c-1.8,0.5-3,1.6-3.6,3.4c-0.3,0.9-0.4,1.8-0.5,2.7c-0.3,2.5-0.2,4.9,0.7,7.2c0.6,1.5,1.5,2.4,3.1,2.7c0.6,0.1,1.3,0.2,1.9,0.2
		c1,0,1.9,0,2.8,0c1.9,0,1.9,0,1.7,1.9c0,0.6-0.2,1.2-0.4,1.8c-0.4,1.2-1.3,1.8-2.5,1.8c-1,0-2.1,0-3.1-0.2
		c-0.5-0.1-0.9-0.1-1.4-0.1c-0.3,0-0.5,0.1-0.5,0.4c0,0.2,0,0.5,0,0.7c0,0.8,0,1,0.8,1.1c1.6,0.3,3.2,0.4,4.8,0.3
		c1.6,0,2.7-0.8,3.5-2.2c0.5-0.7,0.8-1.5,0.9-2.4c0.1-0.8,0.2-1.6,0.3-2.4c0-0.4,0.2-0.7,0.6-0.7s0.8,0,1.2,0c2.1,0,4.3,0,6.4,0
		c0.3,0,0.7,0,1,0c1,0,1.1,0,1.1-1.1c0-0.3,0-0.7,0-1c0-3.1,0-6.2,0-9.3c0-3.1,0-6.1,0.1-9.2c0-0.5,0-0.9,0-1.4
		S377.6,457.9,377,457.9z M364.8,467.9c0,1.7,0,3.1,0,4.6c0,1.6,0,3.2,0,4.8c0,0.9-0.1,1-1,1c-1.1,0-2.3,0-3.4,0
		c-1.4,0-2.3-0.8-2.9-2.1c-0.4-0.9-0.5-1.8-0.6-2.7c-0.2-1.4,0-2.8,0.4-4.1c0.5-1.9,1.7-2.9,3.7-3c0.9,0,1.8,0,2.8,0s1,0.1,1,1.2
		C364.8,467.7,364.8,467.8,364.8,467.9z"/>
	<path class="st0" d="M206.6,446.9c-0.9-1.8-1.7-3.7-2.6-5.6c-0.4-0.7-0.4-0.8,0.3-1.2c0.9-0.6,1.6-1.4,1.9-2.5
		c0.5-2,0.5-3.9-0.2-5.8c-0.5-1.5-1.6-2.4-3.1-2.7c-0.7-0.1-1.4-0.2-2.2-0.2c-1.7,0-3.5,0-5.2,0c-0.6,0-1.3,0-1.9,0
		c-0.4,0-0.6,0.2-0.6,0.5c0,0.4,0,0.8,0,1.2c0,5.3,0,10.6,0,15.9c0,0.3,0,0.7,0,1c0,0.4,0.2,0.6,0.6,0.6c0.7,0,1.5,0,2.2,0
		c1.1,0,1.1,0,1.1-1c0-1.4,0-2.9,0-4.3c0-2-0.1-1.8,1.9-1.8c0.2,0,0.3,0,0.5,0c0.4,0.1,0.7,0.3,0.9,0.7c0.5,1.2,1,2.4,1.6,3.6
		c0.4,1,0.6,2,1.3,2.8c1.1,0.2,2.2,0.1,3.3,0.1c0.1,0,0.2-0.1,0.3-0.1C206.8,447.7,206.6,447.4,206.6,446.9z M202.4,436.2
		c-0.2,1-0.9,1.6-1.9,1.6c-0.6,0.2-1.1,0.1-1.6,0.1c-2.3,0-2,0.3-2-2c0-0.9,0-1.8,0-2.8c0-0.6,0.2-0.8,0.8-0.8c0.8,0,1.6,0,2.4,0
		c1.7,0.1,2.3,0.8,2.4,2.5C202.5,435.3,202.5,435.7,202.4,436.2z"/>
	<path class="st0" d="M100.7,436.5c-0.1-1.5-0.3-3-0.9-4.4c-0.7-1.5-1.8-2.6-3.5-3c-2.2-0.5-4.3-0.5-6.5-0.1s-3.5,1.8-4.2,3.9
		c-0.2,0.4-0.3,0.9-0.4,1.3c-0.3,1.4-0.4,2.9-0.3,4.3c0,0.8-0.1,1.6,0.1,2.4c0.1,1.1,0.3,2.1,0.6,3.2c0.7,2.4,2.3,3.7,4.8,4
		c1.3,0.2,2.7,0.2,4.1,0.1c0.7-0.1,1.5-0.2,2.2-0.4c1.4-0.5,2.4-1.4,3-2.7c0.4-0.8,0.6-1.7,0.8-2.6
		C100.8,440.5,100.9,438.5,100.7,436.5z M96.6,441.7c0,0.4-0.2,0.8-0.3,1.2c-0.4,1.1-1.1,1.7-2.3,1.9c-0.9,0.1-1.7,0.1-2.6,0
		c-1.2-0.2-2-0.9-2.3-2c-0.1-0.2-0.1-0.4-0.2-0.7c-0.4-2.3-0.4-4.6,0-6.9c0.1-0.4,0.2-0.8,0.3-1.2c0.3-1,1.1-1.5,2-1.7
		c1-0.2,2-0.2,2.9,0c1,0.2,1.8,0.8,2.1,1.8c0.1,0.4,0.3,0.9,0.3,1.3c0.2,1.1,0.3,2.1,0.4,3.2C96.8,439.5,96.7,440.6,96.6,441.7z"/>
	<path class="st0" d="M354.3,435.7c-0.1-1.3-0.4-2.5-0.9-3.7c-0.7-1.4-1.8-2.4-3.3-2.8c-2.4-0.7-4.9-0.6-7.3,0
		c-1.4,0.4-2.5,1.3-3.1,2.6c-0.3,0.6-0.6,1.2-0.7,1.8c-0.6,2.3-0.7,4.6-0.5,7c0.1,1.4,0.3,2.8,0.8,4.2c0.6,1.6,1.7,2.7,3.4,3.1
		c2.4,0.6,4.9,0.6,7.3,0c1.5-0.4,2.6-1.4,3.2-2.9c0.3-0.6,0.4-1.2,0.6-1.8c0.4-1.5,0.4-3,0.3-4.6
		C354.1,437.7,354.1,436.7,354.3,435.7z M350,442.3c-0.4,1.9-1.2,2.6-3.2,2.7c-0.4,0-0.8,0-1.2,0c-1.8-0.1-2.7-0.8-3.1-2.7
		c-0.1-0.4-0.1-0.8-0.2-1.2c0-0.9,0-1.7,0-2.5s0-1.6,0-2.4c0-0.6,0.2-1.1,0.3-1.7c0.3-1.3,1.2-2,2.6-2.1c0.7-0.1,1.5-0.1,2.2,0
		c1.2,0.1,2,0.8,2.4,2c0.1,0.2,0.1,0.4,0.2,0.7C350.4,437.5,350.5,439.9,350,442.3z"/>
	<path class="st0" d="M291.6,432.1c-0.6-1.7-1.7-2.7-3.5-3c-0.6-0.1-1.1-0.2-1.7-0.2c-2.3,0-4.6,0-6.9,0c-0.2,0-0.5,0-0.7,0
		c-0.2,0.1-0.4,0.3-0.4,0.5c0,0.4,0,0.8,0,1.2c0,2.7,0,5.3,0,8c0,2.9,0,5.9-0.1,8.8c0,0.7,0.1,0.8,0.8,0.8c0.8,0,1.6,0,2.4,0
		c0.5,0,0.7-0.1,0.7-0.7c0-1.4,0-2.8,0-4.2c0-0.3,0-0.7,0.1-1c0.1-0.1,0.2-0.3,0.4-0.3c0.4,0,0.8,0,1.2,0.1c1.1,0.2,2.3,0.3,3.4,0.2
		c2.1-0.1,3.5-1.1,4.2-3.1C292.4,436.9,292.3,434.5,291.6,432.1z M288.1,437.4c-0.3,1-0.8,1.4-1.9,1.4c-1,0-1.9,0-2.9,0
		c-0.7,0-0.8-0.1-0.8-0.8c-0.2-0.7-0.1-1.5-0.1-2.3c0-0.9,0-1.7,0-2.6c0-0.4,0.2-0.7,0.6-0.7c1,0,2.1,0,3.1,0c1.1,0.1,1.7,0.5,2,1.6
		C288.4,435.1,288.4,436.3,288.1,437.4z"/>
	<path class="st0" d="M190.6,447c-1.8-5.7-3.5-11.3-5.3-17c-0.1-0.3-0.2-0.5-0.3-0.8s-0.3-0.4-0.6-0.4c-1.3,0-2.5,0-3.8,0
		c-0.5,0-0.7,0.2-0.8,0.6c-0.1,0.3-0.1,0.5-0.2,0.7c-1.8,5.6-3.5,11.2-5.3,16.8c-0.2,0.4-0.3,0.8-0.2,1.3c1.1,0,2.3,0.1,3.7,0
		c0.4-1.2,0.7-2.3,1.2-3.4c0.2-0.5,0.4-0.7,0.9-0.7c1.7,0,3.3,0,5,0c0.8,0,0.8,0,1.1,0.8s0.5,1.7,0.8,2.6c0.1,0.4,0.3,0.6,0.7,0.6
		c1.1,0,2.2,0,3.2,0C190.9,447.6,190.7,447.3,190.6,447z M180,440.6c0.7-2.7,1.4-5.2,2.2-7.9c0.8,1.9,2.1,6.7,2.2,7.9
		C183,440.7,181.6,440.8,180,440.6z"/>
	<path class="st0" d="M137.1,447.1c-1.7-5.6-3.5-11.1-5.2-16.7c-0.1-0.4-0.2-0.7-0.3-1s-0.2-0.4-0.5-0.4c-1.3,0-2.7,0-4,0
		c-0.3,0-0.5,0.2-0.6,0.5c-0.2,0.2-0.2,0.5-0.3,0.8c-1.7,5.5-3.5,11.1-5.2,16.6c-0.1,0.4-0.2,0.7-0.1,1.3c1,0,2,0,3,0
		c0.5,0,0.8-0.1,0.9-0.6c0.2-0.9,0.5-1.9,0.8-2.8c0.2-0.4,0.4-0.6,0.9-0.6c1.7,0,3.3,0,5,0c0.8,0,0.8,0.1,1.1,0.9s0.5,1.7,0.8,2.6
		c0.1,0.2,0.3,0.5,0.6,0.5c1.2,0,2.3,0.1,3.4-0.1C137.5,447.6,137.3,447.3,137.1,447.1z M130.5,440.7c-1.1,0-2.3,0-3.8,0
		c0.8-2.7,1.4-5.1,2.1-7.5c0.4-0.1,0.5,0.1,0.5,0.3c0.6,2.2,1.2,4.3,1.8,6.5C131.2,440.5,131.1,440.7,130.5,440.7z"/>
	<path class="st0" d="M61.6,447.2c-1.1-3.6-2.2-7.1-3.3-10.7c-0.7-2.3-1.4-4.5-2.1-6.8c-0.2-0.6-0.4-0.8-1-0.8c-1.2,0-2.3,0-3.5,0
		c-0.5,0-0.8,0.1-0.9,0.6c0,0.3-0.1,0.5-0.2,0.7c-1.8,5.7-3.5,11.3-5.3,17c-0.1,0.3-0.4,0.6-0.1,1.1c1,0,1.9,0,2.9,0
		c0.8,0,0.9,0,1.1-0.8c0.3-0.9,0.6-1.9,0.9-2.8c0.1-0.3,0.3-0.5,0.6-0.5c2,0,3.9,0,5.9,0c0.2,0.5,0.4,0.8,0.5,1.2
		c0.3,0.7,0.5,1.4,0.7,2.1c0.3,0.7,0.3,0.7,1,0.7c1,0,2,0,3,0C62,447.8,61.8,447.4,61.6,447.2z M51.2,440.7c0.8-2.7,1.5-5.3,2.3-8.2
		c0.9,2.8,1.5,5.4,2.3,8.1C54.2,440.8,52.8,440.7,51.2,440.7z"/>
	<path class="st0" d="M224.3,446.3c-1.1-3.7-2.3-7.5-3.5-11.2c-0.5-1.9-1.1-3.7-1.7-5.6c-0.2-0.5-0.4-0.7-1-0.7c-1.2,0-2.4,0-3.6,0
		c-0.4,0-0.6,0.2-0.7,0.5c-0.1,0.3-0.1,0.5-0.2,0.7c-1.8,5.8-3.6,11.5-5.4,17.3c-0.1,0.2-0.3,0.5,0,0.9c0.9,0,2,0,3,0
		c0.5,0.1,0.8-0.1,0.9-0.6c0.2-0.9,0.5-1.9,0.8-2.8c0.1-0.4,0.4-0.6,0.9-0.6c1.7,0,3.5,0,5.2,0c0.4,0,0.7,0.2,0.8,0.6
		c0.3,0.9,0.6,1.9,0.9,2.8c0.3,0.7,0.3,0.7,1,0.7c1,0,2.1,0.1,3.1-0.1C224.9,447.5,224.6,447,224.3,446.3z M216.5,440.6
		c-0.7,0-1.5,0.1-2.3-0.2c0.7-2.5,1.4-5,2.4-7.5c0.7,2.5,1.4,5,2.1,7.5C218,440.8,217.2,440.6,216.5,440.6z"/>
	<path class="st0" d="M173.6,432.5c-0.5-1.9-1.7-3.1-3.7-3.4c-0.5-0.1-1-0.2-1.5-0.2c-2.4,0-4.7,0-7.1,0c-0.2,0-0.3,0-0.5,0
		c-0.3,0.1-0.5,0.3-0.5,0.6c0,0.4,0,0.8,0,1.2c0,2.6,0,5.2,0,7.8c0,2.3,0,4.6,0,7c0,0.9-0.2,1.8,0.2,2.7c0.9,0.2,1.8,0,2.7,0.1
		c0.1,0,0.1,0,0.2,0c0.6,0,0.7-0.1,0.7-0.7c0-1.4,0-2.8,0-4.2c0-0.3,0-0.7,0.1-1c0-0.1,0.2-0.3,0.3-0.3c0.5,0,0.9,0,1.4,0.1
		c1.1,0.1,2.3,0.2,3.4,0.1c1.9-0.1,3.3-1.1,4-3c0.3-0.6,0.4-1.2,0.5-1.8C174.1,435.8,174.1,434.1,173.6,432.5z M170,437.2
		c-0.2,1.1-0.8,1.6-1.9,1.6c-1,0-2.1,0-3.1,0c-0.5,0-0.7-0.2-0.7-0.8c-0.1-0.7-0.1-1.5-0.1-2.3c0-0.9,0-1.7,0-2.6
		c0-0.4,0.2-0.7,0.6-0.7c1.1,0,2.2-0.1,3.3,0s1.7,0.7,1.9,1.7C170.2,435.1,170.2,436.2,170,437.2z"/>
	<path class="st0" d="M181.1,223.5c0-3.1,0-6.1,0-9.2c0-1,0-2.1,0.2-3.1c0.1-0.4,0.1-0.8,0.1-1.2c-0.1-1.7,0.2-3.4,0.3-5.2
		c0.3-4.8,1-9.6,1.8-14.4c1-6,2.1-11.9,3.7-17.8c1.6-6,3.4-11.8,5.7-17.6c1.9-4.9,4.1-9.7,6.6-14.3c1.2-2.2,2.5-4.4,4-6.5
		c0.3-0.4,0.5-0.8,1-1c0.3-0.1,0.7,0,0.9,0.3c0.3,0.5,0.2,1,0.1,1.5c-0.4,1.9-0.9,3.8-1.3,5.7c-1.1,5.3-2,10.7-2.3,16.1
		c-0.1,1-0.2,2.1-0.3,3.1c-0.2,2.6-0.4,5.3-0.6,7.9c-0.1,1.6-0.1,3.1-0.1,4.7c0.1,1.8,0,3.6-0.2,5.4c-0.2,1.7-0.2,3.3-0.2,5
		c0,0.2,0,0.3,0,0.5c0.7,4,0.3,7.9,0.3,11.9c0,1.2-0.1,2.3,0.3,3.4c0.1,0.3,0.1,0.7,0.1,1c0,4.2,0.5,8.4,0.8,12.6
		c0.3,4,0.7,8,1.2,12c0.4,3,0.7,6.1,1.2,9.1c1.3,7.6,3.4,15,7,21.8c2.8,5.4,6.5,10,11.4,13.7c5.9,4.5,12.5,6.8,19.7,7.9
		c1.3,0.2,2.5,0.3,3.8,0.3c0.7,0,1.4,0.2,2.1,0.3c1.7,0.2,3.5,0.2,5.2,0c3.5-0.4,7-0.6,10.5-1.3c2.4-0.5,4.9-0.9,7.2-1.7
		c0.3-0.1,0.6-0.2,0.8-0.2c0.4,0,0.8,0,1,0.4c0.2,0.3,0.1,0.7-0.2,1.1c-0.1,0.1-0.2,0.2-0.2,0.2c-2.6,2.2-5.1,4.4-7.9,6.5
		c-4.7,3.5-9.8,6.5-15.1,9c-1,0.5-2,0.8-3.1,0.9c-0.3,0-0.6,0-0.8,0.1c-2.3,0.9-4.8,1.4-7.1,2.1c-0.7,0.2-1.4,0.2-2.1,0.3
		c-3.6,0.5-7.2,0.7-10.9,0.4c-2-0.2-4-0.5-5.9-1.1c-2-0.6-4.1-1.2-6.2-1.7c-2.1-0.6-3.9-1.6-5.5-3.1c-1.9-1.7-3.8-3.3-6.1-4.6
		c-1-0.5-1.6-1.4-2.4-2.2c-6.5-7.2-10.9-15.7-13.8-24.9c-1.4-4.6-2.5-9.2-3.2-14c-0.3-2.2-0.6-4.5-0.9-6.7
		C180.9,232.7,181.2,228.1,181.1,223.5z"/>
	<path class="st0" d="M391.8,222c0.3,2.6-0.2,5.1-0.4,7.7c-0.7,6.3-3.1,11.9-6.3,17.2c-0.2,0.2-0.3,0.5-0.4,0.7
		c-0.7,1.8-2,3.2-3.4,4.6c-5.1,5.4-11.3,9-18.2,11.5c-4.3,1.6-8.7,2.6-13.2,3.2c-4.3,0.6-8.6,1-12.9,0.7c-3-0.2-6-0.4-9-0.8
		c-1.9-0.3-3.8-0.4-5.6-0.8c-4.7-0.8-9.4-1.9-14-3.2c-5.7-1.6-11.3-3.4-16.8-5.4c-4.5-1.7-9-3.5-13.4-5.5
		c-5.2-2.3-10.3-4.9-15.3-7.6c-2-1.1-3.9-2.4-6-3.4c-0.2-0.1-0.4-0.2-0.6-0.3c-4.7-3.3-9.4-6.4-13.9-10c-1.5-1.2-2.9-2.4-4.4-3.6
		c-3.3-2.7-6.1-5.9-9.2-8.9c-0.9-0.8-1.6-1.8-2.3-2.8c-0.1-0.2-0.2-0.4,0-0.6c0.2-0.3,0.5-0.4,0.8-0.2c0.5,0.2,1,0.4,1.4,0.7
		c3.5,2.1,7.1,3.8,10.7,5.6c5.6,2.7,11.3,4.9,17.2,6.9c4.7,1.6,9.4,3.1,14.2,4.5c10.4,3,21,5.3,31.6,7.4c4.9,0.9,9.7,1.8,14.6,2.5
		c3.7,0.5,7.4,1.1,11.2,1.2c1.1,0,2.2,0.3,3.3,0.3c5.9,0,11.7-0.5,17.5-2c5.6-1.5,10.6-4,15.2-7.6c3.5-2.7,6.2-6,8.5-9.7
		c2-3,3.5-6.2,4.7-9.6c1.5-4.1,2.5-8.4,3.1-12.7c0.1-1,0.3-2.1,0.4-3.1s0.3-2.1,0.3-3.1c-0.1-2.3,0.3-4.5,0.2-6.7
		c0-0.2,0-0.5,0.1-0.7s0.3-0.4,0.5-0.4c0.3,0,0.5,0,0.6,0.3c0.1,0.1,0.2,0.3,0.2,0.5c1.3,2.7,2.5,5.4,4.1,8c0.9,1.4,1.4,3,1.6,4.7
		c0.1,0.6,0.2,1.1,0.4,1.7c1.1,3.6,2,7.2,2.6,10.9C391.6,216.5,392,219.2,391.8,222z"/>
	<path class="st0" d="M106.2,183c0.2-4.2,0.9-8.3,2.2-12.2c0.8-2.4,1.6-4.7,2.8-6.9c0.1-0.2,0.2-0.4,0.3-0.6
		c2.3-5.3,5.7-10,9.4-14.5c1.3-1.6,2.6-3.1,4.1-4.5c0.5-0.5,1-1,1.5-1.5c6-6.2,12.8-11.4,20.1-16c6.3-4.1,12.8-7.8,19.5-11.2
		c3.3-1.7,6.6-3.2,10-4.7c4.1-1.8,8.1-3.5,12.3-5c2-0.7,3.9-1.3,6-1.7c1.2-0.2,2.5-0.6,3.7-1c4.9-1.6,10-2.8,15.1-3.8
		c3.5-0.7,6.9-1.2,10.4-1.5c4-0.3,8-0.7,12.1-0.5c0.1,0,0.2,0,0.3,0c0.8,0,1.2,0.2,1.1,0.5c-0.1,0.5-0.6,0.4-1,0.6
		c-1,0.3-2.1,0.6-3.1,1c-1,0.3-2,0.8-3,1.3c-0.8,0.5-1.6,0.9-2.5,1.2c-8.9,3.5-17.4,8-25.6,12.8c-11,6.4-21.5,13.7-31.7,21.3
		c-5.6,4.2-11.1,8.5-16.4,13c-6.6,5.6-12.3,11.9-16.6,19.5c-2,3.6-3.5,7.4-4.4,11.4c-0.6,2.6-0.9,5.3-1,8
		c-0.1,6.8,1.5,13.1,4.4,19.2c3.1,6.6,7.3,12.4,12.5,17.5c1.6,1.5,3.1,3.1,4.6,4.7c0.3,0.3,0.7,0.6,0.8,1.1s-0.2,1-0.7,0.9
		c-0.1,0-0.2,0-0.3-0.1c-4.7-1.3-9.4-2.9-13.9-4.8c-3.8-1.6-7.4-3.7-11-5.9c-3.5-2.1-6.6-4.7-9.4-7.6c-6-6-10-13.2-11.7-21.6
		C106.3,188.9,106,186,106.2,183z"/>
	<path class="st1" d="M332.7,158v-0.1C332.7,157.9,332.7,158,332.7,158L332.7,158z"/>
	<path class="st1" d="M331.7,146.6c0.1-0.1,0.2-0.1,0.2,0.1l-0.1,0.1C331.6,146.7,331.6,146.7,331.7,146.6
		C331.7,146.5,331.7,146.6,331.7,146.6z"/>
</g>
</svg>
